Coordinates
version=1
nRows=54
nColumns=12
inDegrees=yes

Units are S.I. units (second, meters, Newtons, ...)
Angles are in degrees

endheader
time	SC_y	SC_z	SC_x	AC_y	AC_z	AC_x	GH_y	GH_z	GH_yy	EL_x	PS_y
       0.0              -34.46          14.49          81.44          64.15         -1.595          -7.04         -146.3          14.24         -28.85          84.43           56.6
   0.04898              -34.46          14.49          81.43          64.14         -1.595         -7.039         -146.3          14.25         -28.85          84.44          56.61
   0.09796              -34.46           14.5          81.43          64.14         -1.595         -7.039         -146.3          14.25         -28.84          84.44          56.61
    0.1469              -34.47           14.5          81.42          64.13         -1.595         -7.038         -146.2          14.26         -28.84          84.45          56.62
    0.1959              -34.47           14.5          81.42          64.13         -1.595         -7.037         -146.2          14.26         -28.84          84.45          56.62
    0.2449              -34.47          14.51          81.41          64.13         -1.595         -7.036         -146.2          14.27         -28.84          84.46          56.63
    0.2939              -34.47          14.51           81.4          64.12         -1.595         -7.035         -146.1          14.28         -28.84          84.47          56.64
    0.3429              -34.47          14.51           81.4          64.12         -1.595         -7.034         -146.1          14.29         -28.84          84.48          56.64
    0.3918              -34.47          14.52          81.39          64.11         -1.595         -7.033         -146.0          14.29         -28.84          84.49          56.65
    0.4408              -34.47          14.52          81.38           64.1         -1.595         -7.032         -146.0           14.3         -28.84          84.49          56.66
    0.4898              -34.47          14.53          81.38           64.1         -1.595         -7.031         -145.9          14.31         -28.84           84.5          56.67
    0.5388              -34.47          14.53          81.37          64.09         -1.595          -7.03         -145.9          14.32         -28.83          84.51          56.68
    0.5878              -34.48          14.54          81.36          64.08         -1.595         -7.028         -145.8          14.33         -28.83          84.53          56.69
    0.6367              -34.48          14.55          81.35          64.08         -1.595         -7.027         -145.8          14.34         -28.83          84.54           56.7
    0.6857              -34.48          14.55          81.34          64.07         -1.595         -7.025         -145.7          14.36         -28.83          84.55          56.72
    0.7347              -34.48          14.56          81.32          64.06         -1.595         -7.023         -145.6          14.37         -28.83          84.57          56.73
    0.7837              -34.48          14.57          81.31          64.05         -1.595         -7.021         -145.5          14.38         -28.83          84.58          56.75
    0.8327              -34.49          14.58           81.3          64.04         -1.595         -7.019         -145.4           14.4         -28.82           84.6          56.76
    0.8816              -34.49          14.59          81.28          64.02         -1.594         -7.017         -145.3          14.42         -28.82          84.62          56.78
    0.9306              -34.49           14.6          81.27          64.01         -1.594         -7.014         -145.2          14.44         -28.82          84.64           56.8
    0.9796               -34.5          14.61          81.25           64.0         -1.594         -7.012         -145.1          14.46         -28.81          84.66          56.82
     1.029               -34.5          14.62          81.23          63.98         -1.594         -7.009         -145.0          14.48         -28.81          84.69          56.85
     1.078               -34.5          14.64           81.2          63.96         -1.594         -7.005         -144.8          14.51         -28.81          84.71          56.87
     1.127              -34.51          14.65          81.18          63.94         -1.594         -7.002         -144.7          14.53          -28.8          84.74           56.9
     1.176              -34.51          14.67          81.15          63.92         -1.594         -6.997         -144.5          14.57          -28.8          84.78          56.93
     1.224              -34.52          14.69          81.12          63.89         -1.594         -6.993         -144.3           14.6         -28.79          84.81          56.97
     1.273              -34.52          14.71          81.09          63.87         -1.594         -6.988         -144.1          14.64         -28.79          84.86          57.01
     1.322              -34.53          14.74          81.05          63.84         -1.593         -6.982         -143.8          14.68         -28.78           84.9          57.06
     1.371              -34.54          14.76           81.0           63.8         -1.593         -6.975         -143.5          14.73         -28.77          84.96          57.11
      1.42              -34.55          14.79          80.95          63.76         -1.593         -6.968         -143.2          14.79         -28.76          85.02          57.17
     1.469              -34.55          14.83           80.9          63.72         -1.593         -6.959         -142.8          14.86         -28.75          85.09          57.23
     1.518              -34.57          14.87          80.83          63.66         -1.593         -6.949         -142.4          14.93         -28.74          85.16          57.31
     1.567              -34.58          14.92          80.76           63.6         -1.592         -6.938         -141.9          15.02         -28.73          85.26           57.4
     1.616              -34.59          14.98          80.67          63.53         -1.592         -6.925         -141.4          15.12         -28.72          85.36           57.5
     1.665              -34.61          15.04          80.57          63.45         -1.592          -6.91         -140.7          15.23          -28.7          85.49          57.62
     1.714              -34.63          15.12          80.45          63.36         -1.591         -6.891         -139.9          15.37         -28.68          85.63          57.76
     1.763              -34.66          15.21           80.3          63.24          -1.59          -6.87         -139.0          15.53         -28.65          85.81          57.93
     1.812              -34.69          15.32          80.13          63.11          -1.59         -6.844         -137.9          15.73         -28.62          86.02          58.13
     1.861              -34.72          15.45          79.92          62.94         -1.589         -6.813         -136.5          15.96         -28.59          86.27          58.37
      1.91              -34.76          15.61          79.67          62.74         -1.588         -6.775         -134.9          16.25         -28.55          86.58          58.67
     1.959              -34.82          15.81          79.36          62.49         -1.587         -6.728         -132.9          16.61         -28.49          86.96          59.04
     2.008              -34.88          16.06          78.97          62.18         -1.585         -6.669         -130.3          17.06         -28.43          87.44           59.5
     2.057              -34.97          16.37          78.47          61.78         -1.583         -6.595         -127.1          17.62         -28.34          88.04          60.08
     2.106              -35.08          16.77          77.85          61.29          -1.58         -6.501         -123.1          18.33         -28.24           88.8          60.81
     2.155              -35.21          17.27          77.05          60.65         -1.577         -6.381         -117.9          19.24          -28.1          89.77          61.75
     2.204              -35.39          17.93          76.02          59.83         -1.573         -6.226         -111.2          20.41         -27.92          91.02          62.96
     2.253              -35.61          18.76           74.7          58.78         -1.568         -6.029         -102.7          21.91          -27.7          92.62           64.5
     2.302              -35.89           19.8          73.05          57.46         -1.561         -5.781         -92.03          23.79         -27.42          94.63          66.43
     2.351              -36.24          21.08          71.04          55.86         -1.553         -5.479         -78.99          26.08         -27.08          97.08           68.8
       2.4              -36.63          22.56          68.71           54.0         -1.543         -5.128         -63.88          28.74         -26.68          99.91          71.53
     2.449              -37.06          24.16          66.18          51.99         -1.533         -4.749         -47.52          31.61         -26.25          103.0          74.49
     2.498               -37.5          25.76          63.66          49.98         -1.523          -4.37         -31.16          34.49         -25.82          106.1          77.46
     2.547              -37.89          27.24          61.32          48.12         -1.513          -4.02         -16.06          37.15         -25.42          108.9          80.19
     2.596              -38.24          28.52          59.31          46.51         -1.505         -3.717         -3.021          39.44         -25.08          111.3          82.55
